<?xml version="1.0" encoding="UTF-8"?>
<svg width="151px" height="146px" viewBox="0 0 151 146" version="1.1" xmlns="http://www.w3.org/2000/svg" xmlns:xlink="http://www.w3.org/1999/xlink">
    <!-- Generator: Sketch 51.3 (57544) - http://www.bohemiancoding.com/sketch -->
    <title>Quality Control</title>
    <desc>Created with Sketch.</desc>
    <defs>
        <path d="M50.7174163,77.8 L50.7174163,79.9 C50.7174163,81.059798 49.8110161,82 48.6929149,82 L34.5214054,82 C33.4033041,82 32.496904,81.059798 32.496904,79.9 L32.496904,77.2372 C33.749638,76.4869613 34.5213686,75.1004774 34.5214054,73.6 L34.5214054,54.7 C34.5213686,53.1995226 33.749638,51.8130387 32.496904,51.0628 L32.496904,29.5 L24.0142433,29.5 C23.6629074,29.500717 23.3363398,29.3124106 23.1514689,29.0025045 C22.9665981,28.6925984 22.9498672,28.3054202 23.1072667,27.9796 L24.1903749,25.7326 C24.3223056,25.4579837 24.563435,25.2569657 24.8503623,25.1824 L32.496904,23.2 L32.496904,21.1 C32.496904,19.940202 33.4033041,19 34.5214054,19 L53.8310994,19 L72.577982,27.4882 C73.0166301,27.6874771 73.2606417,28.178333 73.1627781,28.6645811 C73.0649145,29.1508293 72.6519545,29.4994155 72.1730817,29.5 L50.7194408,29.5 L50.7194408,50.5 C48.4832383,50.5 46.670438,52.3804041 46.670438,54.7 L46.670438,73.6 C46.670438,75.9195959 48.4832383,77.8 50.7194408,77.8 L50.7174163,77.8 Z M48.6929149,73.6 L48.6929149,54.7 C48.6929149,53.540202 49.599315,52.6 50.7174163,52.6 L73.5315222,52.6 C74.012551,52.5999593 74.4271706,52.9510756 74.5233956,53.439958 C74.6196206,53.9288404 74.370871,54.4204454 73.9283244,54.616 L54.766419,63.1 L54.766419,73.6 C54.766419,74.759798 53.8600189,75.7 52.7419176,75.7 L50.7174163,75.7 C49.599315,75.7 48.6929149,74.759798 48.6929149,73.6 Z M32.496904,73.6 C32.496904,74.759798 31.5905039,75.7 30.4724026,75.7 C29.3543014,75.7 28.4479013,74.759798 28.4479013,73.6 L28.4479013,57.85 L24.8503623,56.9176 C24.563435,56.8430343 24.3223056,56.6420163 24.1903749,56.3674 L23.1072667,54.1204 C22.9500295,53.7949141 22.9665555,53.4081692 23.150938,53.0983901 C23.3353206,52.788611 23.661243,52.6000122 24.0122188,52.6 L30.4724026,52.6 C31.5905039,52.6 32.496904,53.540202 32.496904,54.7 L32.496904,73.6 Z M40.5949095,58.9 C41.7130107,58.9 42.6194108,57.959798 42.6194108,56.8 C42.6194108,55.640202 41.7130107,54.7 40.5949095,54.7 C39.4768082,54.7 38.5704081,55.640202 38.5704081,56.8 C38.5704081,57.959798 39.4768082,58.9 40.5949095,58.9 Z M40.5949095,65.2 C41.7130107,65.2 42.6194108,64.259798 42.6194108,63.1 C42.6194108,61.940202 41.7130107,61 40.5949095,61 C39.4768082,61 38.5704081,61.940202 38.5704081,63.1 C38.5704081,64.259798 39.4768082,65.2 40.5949095,65.2 Z M40.5949095,71.5 C41.7130107,71.5 42.6194108,70.559798 42.6194108,69.4 C42.6194108,68.240202 41.7130107,67.3 40.5949095,67.3 C39.4768082,67.3 38.5704081,68.240202 38.5704081,69.4 C38.5704081,70.559798 39.4768082,71.5 40.5949095,71.5 Z M40.5949095,77.8 C41.7130107,77.8 42.6194108,76.859798 42.6194108,75.7 C42.6194108,74.540202 41.7130107,73.6 40.5949095,73.6 C39.4768082,73.6 38.5704081,74.540202 38.5704081,75.7 C38.5704081,76.859798 39.4768082,77.8 40.5949095,77.8 Z M40.5949095,52.6 C41.7130107,52.6 42.6194108,51.659798 42.6194108,50.5 C42.6194108,49.340202 41.7130107,48.4 40.5949095,48.4 C39.4768082,48.4 38.5704081,49.340202 38.5704081,50.5 C38.5704081,51.659798 39.4768082,52.6 40.5949095,52.6 Z M40.5949095,46.3 C41.7130107,46.3 42.6194108,45.359798 42.6194108,44.2 C42.6194108,43.040202 41.7130107,42.1 40.5949095,42.1 C39.4768082,42.1 38.5704081,43.040202 38.5704081,44.2 C38.5704081,45.359798 39.4768082,46.3 40.5949095,46.3 Z M40.5949095,40 C41.7130107,40 42.6194108,39.059798 42.6194108,37.9 C42.6194108,36.740202 41.7130107,35.8 40.5949095,35.8 C39.4768082,35.8 38.5704081,36.740202 38.5704081,37.9 C38.5704081,39.059798 39.4768082,40 40.5949095,40 Z M40.5949095,33.7 C41.7130107,33.7 42.6194108,32.759798 42.6194108,31.6 C42.6194108,30.440202 41.7130107,29.5 40.5949095,29.5 C39.4768082,29.5 38.5704081,30.440202 38.5704081,31.6 C38.5704081,32.759798 39.4768082,33.7 40.5949095,33.7 Z" id="path-1"></path>
    </defs>
    <g id="Page-1" stroke="none" stroke-width="1" fill="none" fill-rule="evenodd">
        <g id="Desktop-HD" transform="translate(-211.000000, -326.000000)">
            <g id="Background">
                <g id="Content" transform="translate(199.000000, 49.000000)">
                    <g id="Value-Props" transform="translate(0.000000, 274.000000)">
                        <g id="Quality-Control" transform="translate(0.000000, 3.000000)">
                            <g id="icon-pixel-precision" transform="translate(39.873626, 0.000000)" fill-rule="nonzero">
                                <path d="M48.6263736,100 C96.877919,100 97.2527473,77.6145833 97.2527473,50 C97.2527473,22.3854167 96.877919,0 48.6263736,0 C0.374828297,0 0,22.3854167 0,50 C0,77.6145833 0.374828297,100 48.6263736,100 Z" id="Shape" fill="#F58181"></path>
                                <g id="Shape" stroke="#333333">
                                    <use fill="#FFFFFF" xlink:href="#path-1"></use>
                                    <use xlink:href="#path-1"></use>
                                    <use xlink:href="#path-1"></use>
                                    <use xlink:href="#path-1"></use>
                                    <use xlink:href="#path-1"></use>
                                    <use xlink:href="#path-1"></use>
                                    <use xlink:href="#path-1"></use>
                                    <use xlink:href="#path-1"></use>
                                    <use xlink:href="#path-1"></use>
                                    <use xlink:href="#path-1"></use>
                                    <use xlink:href="#path-1"></use>
                                </g>
                            </g>
                            <text id="AUTOMATIC-QUALITY-CO" font-family="HelveticaNeue-Medium, Helvetica Neue" font-size="12" font-weight="400" letter-spacing="2.76" fill="#FFFFFF">
                                <tspan x="41.286" y="130">AUTOMATIC </tspan>
                                <tspan x="11.67" y="145">QUALITY CONTROL</tspan>
                            </text>
                        </g>
                    </g>
                </g>
            </g>
        </g>
    </g>
</svg>